<svg xmlns="http://www.w3.org/2000/svg" width="1200" height="800" viewBox="0 0 1200 800">
  <rect width="1200" height="800" fill="none" />
  <g fill="none" stroke="#4F46E5" stroke-width="2" opacity="0.35">
    <path d="M120 560 C 220 520, 300 540, 380 500 S 560 420, 660 460 820 520, 980 430" />
    <path d="M150 610 C 260 580, 330 600, 420 560 S 590 480, 700 520 860 580, 1030 500" />
  </g>
  <g fill="#4F46E5" opacity="0.35">
    <circle cx="380" cy="500" r="6" />
    <circle cx="660" cy="460" r="6" />
    <circle cx="980" cy="430" r="6" />
  </g>
  <g fill="none" stroke="#94A3B8" stroke-width="1" opacity="0.4">
    <path d="M100 300 H 1100" />
    <path d="M100 380 H 1100" />
    <path d="M100 460 H 1100" />
    <path d="M100 540 H 1100" />
    <path d="M100 620 H 1100" />
  </g>
  <g fill="#E2E8F0" opacity="0.5">
    <rect x="160" y="220" width="80" height="120" rx="10" />
    <rect x="270" y="180" width="80" height="160" rx="10" />
    <rect x="380" y="200" width="80" height="140" rx="10" />
  </g>
</svg>
